<svg xmlns="http://www.w3.org/2000/svg" data-name="Layer 1" viewBox="0 0 64 64" id="ewallet"><path fill="#266b61" d="M41,7.85v8.3H5l6.55-2L38.42,5.94A1.99959,1.99959,0,0,1,41,7.85Z"></path><path d="M54,17.15v38a1.00291,1.00291,0,0,1-1,1H5a1.00291,1.00291,0,0,1-1-1v-38a1.003,1.003,0,0,1,1-1l6.55-2H41v2H53A1.003,1.003,0,0,1,54,17.15Z" opacity=".1"></path><rect width="50" height="42" x="4" y="16.15" fill="#f1f4ae" rx="1"></rect><path d="M54,43.15H44a1.00294,1.00294,0,0,1-1-1v-14a1.00294,1.00294,0,0,1,1-1H54Z" opacity=".1"></path><rect width="17" height="16" x="43" y="29.149" fill="#266b61" rx="1"></rect><path fill="#f9ab43" d="M30,45.64948H20a1.5,1.5,0,0,1,0-3h8.5v-10.5a1.5,1.5,0,0,1,3,0v12A1.50039,1.50039,0,0,1,30,45.64948Z"></path><path fill="#266b61" d="M30 34.14948a6 6 0 1 1 6-6A6.00657 6.00657 0 0 1 30 34.14948zM16 50.14948a6 6 0 1 1 6-6A6.00657 6.00657 0 0 1 16 50.14948zM8 22.14948a1.99916 1.99916 0 0 1 2-2h0a1.99947 1.99947 0 0 1 2 2h0a2.00638 2.00638 0 0 1-2 2h0A2.00607 2.00607 0 0 1 8 22.14948z"></path></svg>